# xmcd
#
# Track frame offsets: 
#        150
#        23137
#        46485
#        69692
#        95370
#        115307
#        139350
#        162152
#        187587
#        210572
#        232200
#
# Disc length: 3384 seconds
#
# Revision: 6
# Processed by: cddbd v1.5.2PL0 Copyright (c) Steve Scherf et al.
# Submitted via: ExactAudioCopy v1.0b3
#
DISCID=980d360b
DTITLE=Michael Bolton - The One Thing
DYEAR=1993
DGENRE=Pop
TTITLE0=Said I Loved You...But I Lied
TTITLE1=I'm Not Made Of Steel
TTITLE2=The One Thing
TTITLE3=Soul Of My Soul
TTITLE4=Completely
TTITLE5=Lean On Me
TTITLE6=Ain't Got Nothing If You Ain't Got Love
TTITLE7=A Time For Letting Go
TTITLE8=Never Get Enough Of Your Love
TTITLE9=In The Arms Of Love
TTITLE10=The Voice Of My Heart
EXTD=
EXTT0=
EXTT1=
EXTT2=
EXTT3=
EXTT4=
EXTT5=
EXTT6=
EXTT7=
EXTT8=
EXTT9=
EXTT10=
PLAYORDER=
